<svg width="22" height="22" viewBox="0 0 22 22" fill="none" xmlns="http://www.w3.org/2000/svg">
<path d="M11 22C17.0751 22 22 17.0751 22 11C22 4.92487 17.0751 0 11 0C4.92487 0 0 4.92487 0 11C0 17.0751 4.92487 22 11 22Z" fill="#828C94"/>
<path d="M17.7084 7.63007C17.547 7.02734 17.0734 6.55368 16.4707 6.39234C15.3781 6.09961 11 6.09961 11 6.09961C11 6.09961 6.62183 6.09961 5.53046 6.39234C4.92773 6.55368 4.45407 7.02734 4.29273 7.63007C4 8.72144 4 10.9999 4 10.9999C4 10.9999 4 13.2783 4.29273 14.3697C4.45407 14.9724 4.92773 15.446 5.53046 15.6074C6.62183 15.9001 11 15.9001 11 15.9001C11 15.9001 15.3781 15.9001 16.4695 15.6074C17.0722 15.446 17.5459 14.9724 17.7072 14.3697C18 13.2783 18 10.9999 18 10.9999C18 10.9999 18 8.72144 17.7072 7.63007H17.7084Z" fill="white"/>
<path d="M9.60132 13.0989L13.2396 10.9992L9.60132 8.89941V13.0989Z" fill="#828C94"/>
</svg>
