<svg width="22" height="22" viewBox="0 0 22 22" fill="none" xmlns="http://www.w3.org/2000/svg">
<path d="M11 22C17.0751 22 22 17.0751 22 11C22 4.92487 17.0751 0 11 0C4.92487 0 0 4.92487 0 11C0 17.0751 4.92487 22 11 22Z" fill="#828C94"/>
<path d="M8.10044 4.04896C7.35563 4.0841 6.84701 4.20296 6.40236 4.37768C5.94218 4.55702 5.55213 4.79768 5.16405 5.18717C4.77597 5.57665 4.53698 5.96698 4.3589 6.42786C4.18656 6.87349 4.0698 7.38253 4.0369 8.12776C4.004 8.87299 3.99672 9.1125 4.00036 11.0135C4.004 12.9144 4.0124 13.1527 4.04852 13.8995C4.08408 14.6441 4.20252 15.1526 4.37724 15.5974C4.55686 16.0576 4.79725 16.4475 5.18687 16.8357C5.57649 17.2239 5.96654 17.4624 6.42854 17.6407C6.87375 17.8128 7.38293 17.9301 8.12802 17.9627C8.87311 17.9953 9.11293 18.0029 11.0133 17.9993C12.9137 17.9956 13.1529 17.9872 13.8995 17.9518C14.6462 17.9164 15.152 17.7971 15.5969 17.6232C16.0571 17.4432 16.4473 17.2032 16.8352 16.8134C17.2232 16.4237 17.462 16.0331 17.64 15.5719C17.8124 15.1267 17.9296 14.6175 17.962 13.873C17.9946 13.1258 18.0023 12.8872 17.9986 10.9866C17.995 9.0859 17.9865 8.84765 17.9511 8.10116C17.9156 7.35467 17.797 6.84773 17.6225 6.40266C17.4426 5.94248 17.2025 5.55285 16.813 5.16435C16.4235 4.77584 16.0326 4.53714 15.5716 4.35962C15.1261 4.18728 14.6172 4.06982 13.8721 4.03762C13.127 4.00542 12.8872 3.99716 10.9861 4.0008C9.08503 4.00444 8.84707 4.01256 8.10044 4.04896ZM8.1822 16.7034C7.49969 16.6737 7.12911 16.5603 6.88215 16.4654C6.5551 16.3394 6.32214 16.1871 6.07602 15.9433C5.8299 15.6996 5.67869 15.4658 5.55101 15.1394C5.45511 14.8925 5.33961 14.5223 5.30769 13.8398C5.27297 13.1021 5.26569 12.8807 5.26163 11.0118C5.25757 9.1429 5.26471 8.92171 5.29705 8.18376C5.32617 7.50181 5.44027 7.13081 5.53505 6.88399C5.66105 6.55652 5.81282 6.32398 6.05712 6.078C6.30142 5.83201 6.53452 5.68053 6.86115 5.55285C7.10783 5.45653 7.47799 5.34201 8.16022 5.30953C8.89845 5.27453 9.11963 5.26753 10.9882 5.26347C12.8568 5.25941 13.0786 5.26641 13.8171 5.29889C14.499 5.32857 14.8702 5.44155 15.1167 5.53689C15.4439 5.66289 15.6767 5.81423 15.9227 6.05896C16.1687 6.30368 16.3203 6.53594 16.448 6.86327C16.5445 7.10925 16.659 7.47927 16.6912 8.16192C16.7263 8.90015 16.7343 9.1215 16.7377 10.9899C16.741 12.8584 16.7344 13.0803 16.7021 13.818C16.6723 14.5005 16.5592 14.8712 16.4641 15.1184C16.3381 15.4454 16.1862 15.6785 15.9417 15.9243C15.6973 16.1701 15.4645 16.3216 15.1377 16.4493C14.8913 16.5455 14.5207 16.6603 13.8391 16.6928C13.1008 16.7275 12.8796 16.7348 11.0103 16.7388C9.14103 16.7429 8.92043 16.7353 8.1822 16.7034ZM13.8888 7.25877C13.8896 7.72273 14.2662 8.09822 14.7302 8.09738C15.1941 8.09654 15.5696 7.71993 15.5688 7.25597C15.5679 6.792 15.1913 6.41652 14.7274 6.41736C14.2636 6.41834 13.8879 6.79494 13.8888 7.25877ZM7.40533 11.007C7.40925 12.9922 9.02153 14.5979 11.0063 14.5941C12.9911 14.5904 14.5979 12.9782 14.5941 10.993C14.5903 9.0078 12.9776 7.40171 10.9926 7.40563C9.00753 7.40955 7.40155 9.0221 7.40533 11.007ZM8.66618 11.0045C8.66366 9.7158 9.70623 8.669 10.9949 8.66648C12.2837 8.66396 13.3304 9.7066 13.333 10.9953C13.3355 12.284 12.2929 13.3308 11.0042 13.3333C9.71563 13.336 8.66884 12.293 8.66618 11.0045Z" fill="white"/>
</svg>
