<svg width="22" height="22" viewBox="0 0 22 22" fill="none" xmlns="http://www.w3.org/2000/svg">
<path d="M22 11C22 4.92486 17.0751 0 11 0C4.92486 0 0 4.92486 0 11C0 16.4903 4.02252 21.0412 9.2812 21.8664V14.1797H6.48828V11H9.2812V8.57656C9.2812 5.81969 10.9235 4.29688 13.4361 4.29688C14.6397 4.29688 15.8984 4.51172 15.8984 4.51172V7.21875H14.5114C13.145 7.21875 12.7188 8.06674 12.7188 8.93664V11H15.7695L15.2818 14.1797H12.7188V21.8664C17.9775 21.0412 22 16.4905 22 11Z" fill="#828C94"/>
<path d="M15.2818 14.1797L15.7695 11H12.7188V8.93664C12.7188 8.06674 13.145 7.21875 14.5114 7.21875H15.8984V4.51172C15.8984 4.51172 14.6397 4.29688 13.4361 4.29688C10.9235 4.29688 9.2812 5.81969 9.2812 8.57656V11H6.48828V14.1797H9.2812V21.8664C9.8413 21.9542 10.4152 22 11 22C11.5848 22 12.1587 21.9542 12.7188 21.8664V14.1797H15.2818Z" fill="white"/>
</svg>
