<svg width="22" height="22" viewBox="0 0 22 22" fill="none" xmlns="http://www.w3.org/2000/svg">
<path d="M11 22C17.0751 22 22 17.0751 22 11C22 4.92487 17.0751 0 11 0C4.92487 0 0 4.92487 0 11C0 17.0751 4.92487 22 11 22Z" fill="#828C94"/>
<path d="M6.96631 4.7666H15.033V12.8333H6.96631V4.7666ZM11.5913 7.24864V8.81408L10.4126 7.24864H9.1381V10.3513H10.4082V8.78576L11.5872 10.3513H12.8612V7.24864H11.5913Z" fill="white"/>
<path d="M6.96631 13.4541H15.033L13.5204 15.3157H8.47869L6.96631 13.4541Z" fill="white"/>
<path d="M8.98279 15.9355H13.0161L10.9993 18.4175L8.98279 15.9355Z" fill="white"/>
</svg>
