<svg width="22" height="22" viewBox="0 0 22 22" fill="none" xmlns="http://www.w3.org/2000/svg">
<path d="M11 22C17.0751 22 22 17.0751 22 11C22 4.92487 17.0751 0 11 0C4.92487 0 0 4.92487 0 11C0 17.0751 4.92487 22 11 22Z" fill="#828C94"/>
<path d="M13.6546 5.5H8.34601C7.98937 5.5 7.7002 5.77492 7.7002 6.11427V11.4991C7.7002 11.8382 7.98937 12.1132 8.34601 12.1132H10.7934C10.7766 12.7122 10.5223 13.3691 10.1357 13.9432C9.76303 14.4965 9.15054 15.0415 8.81822 15.3021C8.80967 15.3089 8.8012 15.3154 8.79321 15.3217C8.72151 15.3871 8.66922 15.4632 8.66809 15.5686C8.66697 15.6486 8.71059 15.7105 8.75912 15.7761L8.77157 15.7896L10.466 17.6074C10.466 17.6074 10.5488 17.6908 10.6173 17.7066C10.6946 17.7243 10.7821 17.7265 10.8427 17.6818C13.7985 15.5067 14.2254 12.7794 14.2997 11.3034C14.2999 11.295 14.3002 6.11427 14.3002 6.11427C14.3002 5.77492 14.0112 5.5 13.6546 5.5Z" fill="white"/>
</svg>
